<svg xmlns="http://www.w3.org/2000/svg"
     width="24" height="24" viewBox="0 0 24 24"
     fill="none" stroke="currentColor"
     stroke-width="2" stroke-linecap="round" stroke-linejoin="round"
     aria-hidden="true" focusable="false">
  <!-- scale down + center to avoid clipping -->
  <g transform="translate(12 12) scale(0.92) translate(-12 -12)">
    <circle cx="12" cy="12" r="3"/>
    <path d="M19.4 15a1.7 1.7 0 0 0 .3 1.9l.1.1a2 2 0 1 1-2.8 2.8l-.1-.1a1.7 1.7 0 0 0-1.9-.3 1.7 1.7 0 0 0-1 1.5V21a2 2 0 1 1-4 0v-.1a1.7 1.7 0 0 0-1-1.5 1.7 1.7 0 0 0-1.9.3l-.1.1a2 2 0 1 1-2.8-2.8l.1-.1a1.7 1.7 0 0 0 .3-1.9 1.7 1.7 0 0 0-1.5-1H3a2 2 0 1 1 0-4h.1a1.7 1.7 0 0 0 1.5-1 1.7 1.7 0 0 0-.3-1.9l-.1-.1A2 2 0 1 1 7 3.2l.1.1a1.7 1.7 0 0 0 1.9.3 1.7 1.7 0 0 0 1-1.5V2a2 2 0 1 1 4 0v.1a1.7 1.7 0 0 0 1 1.5 1.7 1.7 0 0 0 1.9-.3l.1-.1a2 2 0 1 1 2.8 2.8l-.1.1a1.7 1.7 0 0 0-.3 1.9 1.7 1.7 0 0 0 1.5 1H21a2 2 0 1 1 0 4h-.1a1.7 1.7 0 0 0-1.5 1z"/>
  </g>
</svg>

